<svg version="1.1" xmlns="http://www.w3.org/2000/svg" viewBox="0 0 890.5109305409819 454.75335693359375" width="1781.0218610819638" height="909.5067138671875">
  <!-- svg-source:excalidraw -->
  
  <defs>
    <style class="style-fonts">
      @font-face {
        font-family: "Virgil";
        src: url("https://excalidraw.com/Virgil.woff2");
      }
      @font-face {
        font-family: "Cascadia";
        src: url("https://excalidraw.com/Cascadia.woff2");
      }
      @font-face {
        font-family: "Assistant";
        src: url("https://excalidraw.com/Assistant-Regular.woff2");
      }
    </style>
    
  </defs>
  <rect x="0" y="0" width="890.5109305409819" height="454.75335693359375" fill="#ffffff"></rect><g stroke-linecap="round" transform="translate(279.79114294332567 130.243408203125) rotate(0 109.58355712890625 47.652587890625)"><path d="M23.83 0 C75.63 -2.09, 126.23 -0.56, 195.34 0 M23.83 0 C58.12 2.4, 92.46 1.48, 195.34 0 M195.34 0 C210.57 -1.78, 219.27 6.97, 219.17 23.83 M195.34 0 C209.73 -0.24, 218.63 7.36, 219.17 23.83 M219.17 23.83 C220.44 43.27, 217.73 62.08, 219.17 71.48 M219.17 23.83 C219.57 42.34, 219.28 60.76, 219.17 71.48 M219.17 71.48 C219.01 88.82, 209.98 95.19, 195.34 95.31 M219.17 71.48 C220.19 87.9, 212.06 94.6, 195.34 95.31 M195.34 95.31 C128.23 96.06, 65.76 94.15, 23.83 95.31 M195.34 95.31 C144.63 95.98, 93.07 95.58, 23.83 95.31 M23.83 95.31 C8.52 93.8, -1.81 88.26, 0 71.48 M23.83 95.31 C7.59 96.99, 1.07 86.55, 0 71.48 M0 71.48 C1.31 59.25, 1.69 50.56, 0 23.83 M0 71.48 C0.67 57.76, 0.75 42.12, 0 23.83 M0 23.83 C-1.9 9.82, 7.08 1.47, 23.83 0 M0 23.83 C-1.8 9.8, 6.25 0.02, 23.83 0" stroke="#1e1e1e" stroke-width="2" fill="none"></path></g><g transform="translate(303.16476965231004 152.89599609375) rotate(0 86.20993041992188 25)"><text x="86.20993041992188" y="0" font-family="Virgil, Segoe UI Emoji" font-size="20px" fill="#1e1e1e" text-anchor="middle" style="white-space: pre;" direction="ltr" dominant-baseline="text-before-edge">Discord Partake </text><text x="86.20993041992188" y="25" font-family="Virgil, Segoe UI Emoji" font-size="20px" fill="#1e1e1e" text-anchor="middle" style="white-space: pre;" direction="ltr" dominant-baseline="text-before-edge">Bot</text></g><g stroke-linecap="round" transform="translate(661.3438162831694 35.64031982421875) rotate(0 109.58355712890625 47.652587890625)"><path d="M23.83 0 C91.43 -2.81, 161.88 0.49, 195.34 0 M23.83 0 C81.8 1.47, 140.93 1.27, 195.34 0 M195.34 0 C211.97 -0.69, 220.68 6.86, 219.17 23.83 M195.34 0 C209.42 -0.59, 220.11 8.67, 219.17 23.83 M219.17 23.83 C218.65 44.06, 220.39 60.69, 219.17 71.48 M219.17 23.83 C218.03 42.08, 219.1 60.26, 219.17 71.48 M219.17 71.48 C220.73 87.96, 210.38 96.33, 195.34 95.31 M219.17 71.48 C217.09 86.92, 212.93 95.03, 195.34 95.31 M195.34 95.31 C138.99 96.59, 82.44 96.9, 23.83 95.31 M195.34 95.31 C131.37 94.35, 68.57 94.87, 23.83 95.31 M23.83 95.31 C8.01 95.42, 0.86 86.12, 0 71.48 M23.83 95.31 C9.09 96.02, -1.81 85.24, 0 71.48 M0 71.48 C-1.23 59.56, -2.22 49.37, 0 23.83 M0 71.48 C0.26 52.58, 0.14 35.53, 0 23.83 M0 23.83 C0.48 8.7, 7.93 -0.61, 23.83 0 M0 23.83 C2.13 6.3, 6.64 -1.02, 23.83 0" stroke="#1e1e1e" stroke-width="2" fill="none"></path></g><g transform="translate(730.6874060658843 70.79290771484375) rotate(0 40.239967346191406 12.5)"><text x="40.239967346191406" y="0" font-family="Virgil, Segoe UI Emoji" font-size="20px" fill="#1e1e1e" text-anchor="middle" style="white-space: pre;" direction="ltr" dominant-baseline="text-before-edge">Partake</text></g><g stroke-linecap="round" transform="translate(654.3153739003569 198.38433837890625) rotate(0 109.58355712890625 47.652587890625)"><path d="M23.83 0 C90.16 0.45, 157.56 -0.88, 195.34 0 M23.83 0 C58.94 -0.12, 92.71 0.22, 195.34 0 M195.34 0 C209.57 -1.14, 220.02 9.88, 219.17 23.83 M195.34 0 C209.47 -0.74, 218.68 8.2, 219.17 23.83 M219.17 23.83 C220.33 36.28, 217.18 47.96, 219.17 71.48 M219.17 23.83 C218.97 41.86, 218.82 57.14, 219.17 71.48 M219.17 71.48 C218.87 86.52, 212.62 95.44, 195.34 95.31 M219.17 71.48 C221.3 87.17, 211.12 93.12, 195.34 95.31 M195.34 95.31 C160.48 95.88, 126.9 96.63, 23.83 95.31 M195.34 95.31 C155.51 96.9, 113.9 96.6, 23.83 95.31 M23.83 95.31 C6.6 93.56, -1.3 85.62, 0 71.48 M23.83 95.31 C8.8 93.23, -0.28 89.62, 0 71.48 M0 71.48 C-1.24 52.8, -0.66 34.95, 0 23.83 M0 71.48 C0.6 55.83, 0.62 41.75, 0 23.83 M0 23.83 C1.03 6.9, 8.66 -1.52, 23.83 0 M0 23.83 C2.02 8.42, 6.76 0.03, 23.83 0" stroke="#1e1e1e" stroke-width="2" fill="none"></path></g><g transform="translate(727.9289679555327 233.53692626953125) rotate(0 35.96996307373047 12.5)"><text x="35.96996307373047" y="0" font-family="Virgil, Segoe UI Emoji" font-size="20px" fill="#1e1e1e" text-anchor="middle" style="white-space: pre;" direction="ltr" dominant-baseline="text-before-edge">Discord</text></g><g stroke-linecap="round" transform="translate(44.90315288109571 10) rotate(0 28.692622534863858 29.794560668698836)"><path d="M34.36 0.41 C40.3 1.08, 47.14 6.51, 50.82 11.47 C54.5 16.43, 56.4 24.07, 56.43 30.17 C56.46 36.27, 54.93 43.22, 51.01 48.09 C47.09 52.96, 38.89 58.26, 32.91 59.38 C26.93 60.5, 20.25 58.22, 15.15 54.83 C10.05 51.44, 4.52 44.92, 2.31 39.04 C0.1 33.16, -0.08 25.33, 1.89 19.55 C3.86 13.76, 8.66 7.34, 14.11 4.32 C19.56 1.3, 31.05 1.76, 34.59 1.43 C38.13 1.09, 35.26 1.8, 35.33 2.3 M33.21 0.24 C39.04 1.06, 45.25 5.44, 49.48 10.28 C53.7 15.12, 58.1 23.02, 58.53 29.26 C58.96 35.51, 56.3 42.85, 52.04 47.75 C47.78 52.64, 39.06 57.47, 32.97 58.63 C26.89 59.78, 20.48 57.66, 15.52 54.69 C10.57 51.72, 5.64 46.5, 3.26 40.81 C0.87 35.11, -0.41 26.89, 1.23 20.53 C2.87 14.16, 7.73 6.21, 13.08 2.62 C18.42 -0.97, 30.03 -0.69, 33.32 -1.03 C36.62 -1.36, 33.09 -0.13, 32.84 0.59" stroke="#1e1e1e" stroke-width="2" fill="none"></path></g><g stroke-linecap="round" transform="translate(26.281606390442732 76.86173086632743) rotate(0 45.961433070374056 54.67433249569632)"><path d="M37.61 0.17 C44.64 -2.25, 54.72 -0.61, 61.92 2.59 C69.12 5.79, 76.07 12.32, 80.81 19.35 C85.56 26.39, 89.07 35.77, 90.39 44.82 C91.72 53.87, 91.27 65.2, 88.76 73.65 C86.25 82.11, 81.07 89.63, 75.33 95.55 C69.59 101.47, 61.81 107.31, 54.31 109.18 C46.8 111.05, 37.62 109.82, 30.29 106.77 C22.97 103.72, 15.25 97.81, 10.36 90.86 C5.46 83.91, 2.31 74.08, 0.9 65.08 C-0.52 56.09, -0.75 45.64, 1.87 36.91 C4.48 28.18, 9.31 18.73, 16.6 12.69 C23.88 6.66, 39.33 2.55, 45.58 0.69 C51.82 -1.18, 54.11 0.82, 54.05 1.5 M33.35 2.9 C40.08 -0.66, 48.92 -0.13, 56.13 1.59 C63.33 3.3, 70.86 6.92, 76.59 13.2 C82.32 19.47, 87.96 30.49, 90.5 39.22 C93.04 47.96, 93.41 57, 91.85 65.6 C90.29 74.2, 86.56 83.78, 81.15 90.82 C75.74 97.86, 66.64 104.93, 59.38 107.84 C52.11 110.74, 45.09 110.17, 37.57 108.27 C30.04 106.36, 20.15 102.67, 14.2 96.41 C8.26 90.14, 3.98 79.31, 1.91 70.69 C-0.16 62.06, -0.04 53.5, 1.77 44.67 C3.58 35.84, 7.8 24.52, 12.75 17.71 C17.71 10.9, 28.46 5.99, 31.5 3.83 C34.55 1.67, 30.8 3.87, 31 4.75" stroke="#1e1e1e" stroke-width="2" fill="none"></path></g><g stroke-linecap="round" transform="translate(18.376561644497542 128.1971495920913) rotate(0 56.43738317770067 30.18923648325122)"><path d="M0.46 1.66 L113.3 -0.38 L112 60.01 L-1.29 61.56" stroke="none" stroke-width="0" fill="#ffffff"></path><path d="M0 0 C46.15 -1.65, 87.23 1.01, 112.87 0 M0 0 C29.95 0.76, 62.19 -0.84, 112.87 0 M112.87 0 C114.51 18.12, 112.1 37.21, 112.87 60.38 M112.87 0 C112.58 14.24, 112.54 27.28, 112.87 60.38 M112.87 60.38 C81.35 61.08, 48.68 59.85, 0 60.38 M112.87 60.38 C83.23 59.58, 52.02 59.2, 0 60.38 M0 60.38 C1.12 42.51, 0.12 25.86, 0 0 M0 60.38 C1.25 46.48, -0.49 34.56, 0 0" stroke="transparent" stroke-width="2" fill="none"></path></g><g stroke-linecap="round" transform="translate(36.526591236598165 209.31857299804688) rotate(0 28.692622534863858 29.794560668698864)"><path d="M29.94 0.42 C35.89 0.55, 44.04 3.84, 48.73 8.31 C53.42 12.78, 57.43 20.91, 58.08 27.26 C58.72 33.61, 55.99 41.21, 52.58 46.42 C49.17 51.63, 43.39 56.57, 37.61 58.51 C31.82 60.45, 23.7 60.64, 17.86 58.05 C12.01 55.47, 5.4 48.95, 2.52 42.99 C-0.36 37.02, -1.04 28.47, 0.58 22.24 C2.21 16.01, 6.18 9.22, 12.29 5.6 C18.4 1.99, 32.02 0.57, 37.24 0.55 C42.45 0.52, 43.57 4.96, 43.57 5.46 M35.11 -0.12 C40.79 1.09, 49.34 5.86, 52.8 11.41 C56.26 16.97, 56.57 26.54, 55.86 33.22 C55.14 39.9, 52.67 47.26, 48.51 51.49 C44.35 55.73, 36.71 58.26, 30.9 58.65 C25.09 59.04, 18.48 57.48, 13.64 53.81 C8.8 50.13, 3.91 42.66, 1.85 36.6 C-0.2 30.54, -1.02 23.07, 1.3 17.44 C3.63 11.81, 9.87 5.35, 15.8 2.8 C21.73 0.26, 33.46 2.17, 36.88 2.16 C40.3 2.15, 36.76 2.45, 36.33 2.74" stroke="#1e1e1e" stroke-width="2" fill="none"></path></g><g stroke-linecap="round" transform="translate(17.905044745945133 276.1803038643743) rotate(0 45.96143307037403 54.67433249569632)"><path d="M30.17 3.59 C36.98 -0.1, 46.93 0.09, 54.43 1.6 C61.93 3.11, 69.27 7, 75.16 12.68 C81.05 18.36, 86.98 27.02, 89.77 35.68 C92.56 44.34, 93.36 55.7, 91.89 64.64 C90.41 73.58, 85.93 82.57, 80.93 89.35 C75.92 96.12, 68.82 102.11, 61.84 105.28 C54.86 108.45, 46.59 109.9, 39.04 108.35 C31.49 106.8, 22.56 101.67, 16.55 95.99 C10.53 90.31, 5.46 82.78, 2.92 74.27 C0.39 65.76, -0.04 53.87, 1.31 44.93 C2.66 36, 5.77 27.9, 11 20.66 C16.24 13.43, 28.38 4.54, 32.71 1.51 C37.05 -1.52, 36.78 1.71, 37.02 2.51 M62.41 3.1 C69.72 5.34, 78.25 13.18, 83.22 20.27 C88.2 27.36, 91.55 36.53, 92.25 45.63 C92.94 54.74, 90.44 66.26, 87.39 74.9 C84.33 83.54, 79.55 91.65, 73.91 97.5 C68.28 103.35, 60.99 108.48, 53.6 110.01 C46.21 111.54, 36.98 110.25, 29.56 106.68 C22.13 103.12, 13.7 96.16, 9.04 88.62 C4.38 81.08, 2.42 70.63, 1.59 61.43 C0.75 52.23, 1.35 41.72, 4.03 33.41 C6.72 25.1, 12.05 16.8, 17.69 11.56 C23.33 6.32, 30.19 3.38, 37.89 1.96 C45.59 0.54, 59.97 2.33, 63.89 3.04 C67.81 3.75, 61.88 5.26, 61.39 6.22" stroke="#1e1e1e" stroke-width="2" fill="none"></path></g><g stroke-linecap="round" transform="translate(10 327.51572259013824) rotate(0 56.43738317770067 30.189236483251193)"><path d="M1.01 -1.33 L113.11 -0.23 L110.89 62.24 L1.18 59.23" stroke="none" stroke-width="0" fill="#ffffff"></path><path d="M0 0 C34.25 1.54, 71.06 1.07, 112.87 0 M0 0 C43.93 0.8, 87.63 0.65, 112.87 0 M112.87 0 C112.16 22.53, 113.92 47, 112.87 60.38 M112.87 0 C112.81 17.73, 111.64 34.61, 112.87 60.38 M112.87 60.38 C68.87 60.87, 26.31 57.91, 0 60.38 M112.87 60.38 C70.04 60.49, 28.78 60.64, 0 60.38 M0 60.38 C0.43 38.4, 0.33 19.14, 0 0 M0 60.38 C-0.8 37.4, 0.48 13.56, 0 0" stroke="transparent" stroke-width="2" fill="none"></path></g><g stroke-linecap="round"><g transform="translate(127.5409772983927 96.51801133897476) rotate(0 68.0493076759821 28.24583556518948)"><path d="M0 0 C35.59 15.91, 70.93 30, 136.1 56.49 M0 0 C42.3 17.58, 83.64 34.37, 136.1 56.49" stroke="#1e1e1e" stroke-width="2" fill="none"></path></g><g transform="translate(127.5409772983927 96.51801133897476) rotate(0 68.0493076759821 28.24583556518948)"><path d="M111.13 55.31 C117.41 56.73, 122.91 55.97, 136.1 56.49 M111.13 55.31 C119.49 55.87, 127.17 55.9, 136.1 56.49" stroke="#1e1e1e" stroke-width="2" fill="none"></path></g><g transform="translate(127.5409772983927 96.51801133897476) rotate(0 68.0493076759821 28.24583556518948)"><path d="M117.73 39.54 C122.09 45.21, 125.82 48.69, 136.1 56.49 M117.73 39.54 C124.17 44.86, 129.84 49.67, 136.1 56.49" stroke="#1e1e1e" stroke-width="2" fill="none"></path></g></g><mask></mask><g stroke-linecap="round"><g transform="translate(109.8882931730144 286.787605757395) rotate(0 80.45728426015563 -51.19104194218767)"><path d="M0 0 C60.44 -40.18, 120.56 -79.1, 160.91 -102.38 M0 0 C58.47 -38.06, 118.53 -76.25, 160.91 -102.38" stroke="#1e1e1e" stroke-width="2" fill="none"></path></g><g transform="translate(109.8882931730144 286.787605757395) rotate(0 80.45728426015563 -51.19104194218767)"><path d="M145.51 -82.69 C150.61 -91.59, 155.92 -99.35, 160.91 -102.38 M145.51 -82.69 C150.49 -90.15, 156.49 -97.62, 160.91 -102.38" stroke="#1e1e1e" stroke-width="2" fill="none"></path></g><g transform="translate(109.8882931730144 286.787605757395) rotate(0 80.45728426015563 -51.19104194218767)"><path d="M136.46 -97.2 C144.88 -100.64, 153.59 -102.94, 160.91 -102.38 M136.46 -97.2 C144.9 -99.26, 154.27 -101.34, 160.91 -102.38" stroke="#1e1e1e" stroke-width="2" fill="none"></path></g></g><mask></mask><g transform="translate(24.081975462856917 173.27099609375) rotate(0 51.01995086669922 12.5)"><text x="0" y="0" font-family="Virgil, Segoe UI Emoji" font-size="20px" fill="#1e1e1e" text-anchor="start" style="white-space: pre;" direction="ltr" dominant-baseline="text-before-edge">Organizers</text></g><g transform="translate(29.291631224575667 378.81256103515625) rotate(0 50.05995178222656 12.5)"><text x="0" y="0" font-family="Virgil, Segoe UI Emoji" font-size="20px" fill="#1e1e1e" text-anchor="start" style="white-space: pre;" direction="ltr" dominant-baseline="text-before-edge">Attendees</text></g><g stroke-linecap="round"><g transform="translate(511.07117224020067 132.281494140625) rotate(0 67.9481201171875 -34.6983642578125)"><path d="M0 0 C38.51 -17.78, 74.7 -35.51, 135.9 -69.4 M0 0 C38.97 -21.12, 80.01 -42.09, 135.9 -69.4" stroke="#1e1e1e" stroke-width="2" fill="none"></path></g><g transform="translate(511.07117224020067 132.281494140625) rotate(0 67.9481201171875 -34.6983642578125)"><path d="M118.62 -51.33 C125.25 -55.87, 129.76 -59.89, 135.9 -69.4 M118.62 -51.33 C122.73 -56.99, 128.41 -62.66, 135.9 -69.4" stroke="#1e1e1e" stroke-width="2" fill="none"></path></g><g transform="translate(511.07117224020067 132.281494140625) rotate(0 67.9481201171875 -34.6983642578125)"><path d="M111.05 -66.66 C119.64 -67.07, 126.17 -67.01, 135.9 -69.4 M111.05 -66.66 C117.57 -67.76, 125.5 -68.86, 135.9 -69.4" stroke="#1e1e1e" stroke-width="2" fill="none"></path></g></g><mask></mask><g stroke-linecap="round"><g transform="translate(517.4407401112944 182.0311279296875) rotate(0 62.398773193359375 31.663726806640625)"><path d="M0 0 C29.63 14.91, 60.44 29.65, 124.8 63.33 M0 0 C36.71 20.07, 75.28 38.82, 124.8 63.33" stroke="#1e1e1e" stroke-width="2" fill="none"></path></g><g transform="translate(517.4407401112944 182.0311279296875) rotate(0 62.398773193359375 31.663726806640625)"><path d="M99.95 60.58 C105.51 60.12, 112.25 60.26, 124.8 63.33 M99.95 60.58 C106.93 62.29, 115.42 62.79, 124.8 63.33" stroke="#1e1e1e" stroke-width="2" fill="none"></path></g><g transform="translate(517.4407401112944 182.0311279296875) rotate(0 62.398773193359375 31.663726806640625)"><path d="M107.53 45.25 C111.26 48.42, 116.17 52.26, 124.8 63.33 M107.53 45.25 C112.14 51.56, 118.34 56.68, 124.8 63.33" stroke="#1e1e1e" stroke-width="2" fill="none"></path></g></g><mask></mask><g stroke-linecap="round" transform="translate(657.9702811269194 349.44818115234375) rotate(0 109.58355712890625 47.652587890625)"><path d="M23.83 0 C70.74 -2.76, 121.26 -0.82, 195.34 0 M23.83 0 C84.43 1.71, 144.8 0.08, 195.34 0 M195.34 0 C210.74 1.82, 219.45 7.68, 219.17 23.83 M195.34 0 C213.04 -1.14, 217.24 9.87, 219.17 23.83 M219.17 23.83 C221.05 37.19, 217.75 46.58, 219.17 71.48 M219.17 23.83 C218.44 43.13, 219.44 61.07, 219.17 71.48 M219.17 71.48 C217.43 86.65, 211.36 93.37, 195.34 95.31 M219.17 71.48 C218.12 86.31, 209.38 94.57, 195.34 95.31 M195.34 95.31 C136.93 94.51, 77.75 97.58, 23.83 95.31 M195.34 95.31 C153.2 96.95, 109.31 96.65, 23.83 95.31 M23.83 95.31 C7.75 94.52, -1.95 86.48, 0 71.48 M23.83 95.31 C10.21 94.4, -1.76 88.71, 0 71.48 M0 71.48 C-1.73 51.06, 0.64 34.21, 0 23.83 M0 71.48 C0.03 56.61, -1.29 43.77, 0 23.83 M0 23.83 C-0.06 9.75, 6.19 1.68, 23.83 0 M0 23.83 C1.5 9.48, 8.99 -1.37, 23.83 0" stroke="#1e1e1e" stroke-width="2" fill="none"></path></g><g transform="translate(718.1138739613921 384.60076904296875) rotate(0 49.439964294433594 12.5)"><text x="49.439964294433594" y="0" font-family="Virgil, Segoe UI Emoji" font-size="20px" fill="#1e1e1e" text-anchor="middle" style="white-space: pre;" direction="ltr" dominant-baseline="text-before-edge">Database</text></g><g stroke-linecap="round"><g transform="translate(496.41504431051317 237.88043212890625) rotate(0 73.9923095703125 74)"><path d="M0 0 C59.24 58.33, 116.29 116.63, 147.98 148 M0 0 C55 56.98, 111.31 114.56, 147.98 148" stroke="#1e1e1e" stroke-width="2" fill="none"></path></g><g transform="translate(496.41504431051317 237.88043212890625) rotate(0 73.9923095703125 74)"><path d="M125.08 137.99 C135.86 143.25, 143.56 147.28, 147.98 148 M125.08 137.99 C133.42 141.4, 141.89 146.36, 147.98 148" stroke="#1e1e1e" stroke-width="2" fill="none"></path></g><g transform="translate(496.41504431051317 237.88043212890625) rotate(0 73.9923095703125 74)"><path d="M136.87 125.61 C142.96 135.85, 146.02 144.75, 147.98 148 M136.87 125.61 C140.58 133.67, 144.54 143.36, 147.98 148" stroke="#1e1e1e" stroke-width="2" fill="none"></path></g></g><mask></mask></svg>